#!OML:ASF E:\motion texture\Top Level 1\Subject 1\Session 1\male.ASF
:FULLY-SPECIFIED
:DEGREES
191
root 32.1912 17.5581 5.41584 344.45 -87.5184 -337.303
lowerback -1.68852 0.00634757 0.881046
upperback -0.878481 -0.00966128 -0.0528405
thorax 0.0470949 -0.00992035 -0.547974
lowerneck -18.9682 -1.71185 -4.15326
upperneck 11.7265 -2.37006 6.90153
head 6.81557 -0.720092 2.65744
rclavicle 9.19379e-016 -4.77083e-015
rhumerus -3.07126 26.806 -90.363
rradius 76.7173
rwrist 19.753
rhand -27.3853 -27.247
rfingers 7.12502
rthumb -0.792204 -57.2253
lclavicle 9.19379e-016 -4.77083e-015
lhumerus -4.22279 -26.0053 92.034
lradius 65.9892
lwrist 3.88005
lhand -14.1766 28.4617
lfingers 7.12502
lthumb 11.9589 58.1001
rfemur -34.94 -7.65199 16.3118
rtibia 36.0051
rfoot -2.91853 -16.3375
rtoes 6.75981
lfemur -6.74275 -6.36451 -24.1495
ltibia 16.2316
lfoot -13.435 -1.44766
ltoes 2.96719
192
root 32.0595 17.5469 5.40616 345.797 -87.29 -338.633
lowerback -1.67857 -0.0453451 0.87643
upperback -0.894156 -0.0784247 -0.0619047
thorax 0.0243693 -0.044506 -0.555799
lowerneck -18.9111 -1.71149 -4.14088
upperneck 11.5673 -2.37554 6.9546
head 6.75561 -0.720499 2.67067
rclavicle -2.00027e-015 4.17448e-015
rhumerus -2.23761 27.1415 -90.0132
rradius 77.2274
rwrist 19.8603
rhand -27.6252 -27.3579
rfingers 7.12502
rthumb -1.0239 -57.3351
lclavicle -2.00027e-015 4.17448e-015
lhumerus -3.35829 -26.4577 91.7215
lradius 66.5897
lwrist 4.20899
lhand -14.1392 28.6586
lfingers 7.12502
lthumb 11.9949 58.2949
rfemur -35.0317 -7.4592 16.1503
rtibia 34.4942
rfoot -2.75886 -16.1384
rtoes 6.51546
lfemur -6.35467 -6.3995 -24.1683
ltibia 16.3813
lfoot -13.7846 -1.57198
ltoes 2.63871
193
root 31.9271 17.5356 5.39545 347.049 -87.069 -339.874
lowerback -1.6629 -0.0928824 0.875045
upperback -0.906676 -0.141622 -0.071083
thorax 0.00174583 -0.0762937 -0.565409
lowerneck -18.8509 -1.71215 -4.13127
upperneck 11.4006 -2.38128 7.00815
head 6.69287 -0.721361 2.68441
rclavicle -2.74571e-015 -1.78906e-015
rhumerus -1.39287 27.4707 -89.6529
rradius 77.7155
rwrist 19.9678
rhand -27.8772 -27.4783
rfingers 7.12502
rthumb -1.26731 -57.4542
lclavicle -2.74571e-015 -1.78906e-015
lhumerus -2.48794 -26.8841 91.3994
lradius 67.1827
lwrist 4.54729
lhand -14.1016 28.8749
lfingers 7.12502
lthumb 12.0311 58.5091
rfemur -35.095 -7.23633 15.9867
rtibia 33.0535
rfoot -2.58127 -15.9557
rtoes 6.28744
lfemur -5.97964 -6.43805 -24.1719
ltibia 16.5689
lfoot -14.1252 -1.68522
ltoes 2.26577
194
root 31.7937 17.5242 5.3837 348.23 -86.8546 -341.05
lowerback -1.6427 -0.136105 0.875954
upperback -0.916178 -0.19904 -0.0803341
thorax -0.0202605 -0.105174 -0.576234
lowerneck -18.7852 -1.71368 -4.12568
upperneck 11.226 -2.38697 7.06314
head 6.62686 -0.722559 2.69921
rclavicle -2.23633e-015 -1.59028e-015
rhumerus -0.539229 27.7913 -89.2831
rradius 78.1825
rwrist 20.0748
rhand -28.124 -27.6073
rfingers 7.12502
rthumb -1.50569 -57.5817
lclavicle -2.23633e-015 -1.59028e-015
lhumerus -1.61325 -27.2865 91.0688
lradius 67.7669
lwrist 4.89589
lhand -14.063 29.1066
lfingers 7.12502
lthumb 12.0684 58.7386
rfemur -35.1314 -6.98641 15.822
rtibia 31.6914
rfoot -2.38771 -15.7994
rtoes 6.07837
lfemur -5.61837 -6.48021 -24.1606
ltibia 16.7961
lfoot -14.4539 -1.78937
ltoes 1.84644
195
root 31.6593 17.513 5.37091 349.341 -86.6452 -342.163
lowerback -1.61786 -0.176148 0.878147
upperback -0.922364 -0.252171 -0.0903465
thorax -0.0414353 -0.131887 -0.588435
lowerneck -18.7161 -1.71602 -4.12272
upperneck 11.0455 -2.39261 7.11774
head 6.55849 -0.724132 2.71425
rclavicle -1.49089e-016 3.77691e-015
rhumerus 0.323901 28.1065 -88.9044
rradius 78.6268
rwrist 20.184
rhand -28.3787 -27.7466
rfingers 7.12502
rthumb -1.75162 -57.7192
lclavicle -1.49089e-016 3.77691e-015
lhumerus -0.734361 -27.6637 90.73
lradius 68.3413
lwrist 5.25732
lhand -14.0267 29.3525
lfingers 7.12502
lthumb 12.1034 58.9824
rfemur -35.1417 -6.71401 15.6564
rtibia 30.4141
rfoot -2.18463 -15.6734
rtoes 5.8818
lfemur -5.27256 -6.52528 -24.1362
ltibia 17.0665
lfoot -14.7686 -1.88778
ltoes 1.3767
196
root 31.524 17.5019 5.35704 350.432 -86.4416 -343.261
lowerback -1.58987 -0.212099 0.882636
upperback -0.925512 -0.299831 -0.100418
thorax -0.0612069 -0.155845 -0.60185
lowerneck -18.6441 -1.71963 -4.12382
upperneck 10.8605 -2.39882 7.17373
head 6.4884 -0.726262 2.7303
rclavicle -4.8081e-015 -2.38542e-015
rhumerus 1.19502 28.4141 -88.5173
rradius 79.0459
rwrist 20.2959
rhand -28.6436 -27.8948
rfingers 7.12502
rthumb -2.00747 -57.8651
lclavicle -4.8081e-015 -2.38542e-015
lhumerus 0.148153 -28.0186 90.3844
lradius 68.9057
lwrist 5.63136
lhand -13.9892 29.613
lfingers 7.12502
lthumb 12.1395 59.2408
rfemur -35.1292 -6.42193 15.4955
rtibia 29.229
rfoot -1.9815 -15.5706
rtoes 5.70095
lfemur -4.94578 -6.5721 -24.0954
ltibia 17.3839
lfoot -15.0653 -1.98249
ltoes 0.860182
197
root 31.3876 17.491 5.34208 351.515 -86.2423 -344.357
lowerback -1.55981 -0.244108 0.888789
upperback -0.926155 -0.342224 -0.110446
thorax -0.0795188 -0.177152 -0.61603
lowerneck -18.5669 -1.72431 -4.12753
upperneck 10.6708 -2.40549 7.22938
head 6.41614 -0.729021 2.74657
rclavicle -4.28629e-015 2.98177e-015
rhumerus 2.07224 28.7146 -88.1216
rradius 79.4414
rwrist 20.4109
rhand -28.9165 -28.059
rfingers 7.12502
rthumb -2.27109 -58.0267
lclavicle -4.28629e-015 2.98177e-015
lhumerus 1.0322 -28.3535 90.0334
lradius 69.46
lwrist 6.01958
lhand -13.9521 29.8883
lfingers 7.12502
lthumb 12.1753 59.5139
rfemur -35.0947 -6.11756 15.3428
rtibia 28.1399
rfoot -1.78308 -15.4837
rtoes 5.53823
lfemur -4.64051 -6.61965 -24.0378
ltibia 17.7515
lfoot -15.3401 -2.07734
ltoes 0.293554
198
root 31.2501 17.4806 5.32602 352.624 -86.0474 -345.485
lowerback -1.52831 -0.27246 0.898934
upperback -0.924246 -0.379764 -0.119983
thorax -0.0959875 -0.196021 -0.63184
lowerneck -18.4881 -1.73055 -4.1357
upperneck 10.4798 -2.41315 7.28626
head 6.3434 -0.732498 2.76385
rclavicle 1.00386e-014 -1.78906e-015
rhumerus 2.9567 29.0082 -87.7182
rradius 79.8123
rwrist 20.5293
rhand -29.1968 -28.2305
rfingers 7.12502
rthumb -2.54181 -58.1951
lclavicle 1.00386e-014 -1.78906e-015
lhumerus 1.91823 -28.6679 89.6769
lradius 70.0036
lwrist 6.42074
lhand -13.9161 30.1798
lfingers 7.12502
lthumb 12.21 59.8034
rfemur -35.0409 -5.80421 15.204
rtibia 27.1498
rfoot -1.58943 -15.4103
rtoes 5.40523
lfemur -4.36093 -6.66433 -23.9597
ltibia 18.1728
lfoot -15.5881 -2.1773
ltoes -0.325066
199
root 31.1115 17.4707 5.30889 353.773 -85.8567 -346.656
lowerback -1.49589 -0.296807 0.913768
upperback -0.921055 -0.412004 -0.128836
thorax -0.111622 -0.212244 -0.64947
lowerneck -18.4037 -1.7387 -4.1486
upperneck 10.2869 -2.42231 7.34472
head 6.2695 -0.737009 2.78224
rclavicle -8.32411e-015 -6.95746e-015
rhumerus 3.84597 29.2956 -87.307
rradius 80.1591
rwrist 20.6511
rhand -29.4837 -28.4093
rfingers 7.12502
rthumb -2.81883 -58.3705
lclavicle -8.32411e-015 -6.95746e-015
lhumerus 2.80261 -28.9639 89.3175
lradius 70.5366
lwrist 6.83267
lhand -13.8839 30.4892
lfingers 7.12502
lthumb 12.2411 60.1109
rfemur -34.9692 -5.48832 15.0841
rtibia 26.2603
rfoot -1.40212 -15.3454
rtoes 5.30828
lfemur -4.11002 -6.7051 -23.8599
ltibia 18.6506
lfoot -15.805 -2.28437
ltoes -0.990699
200
root 30.9719 17.4614 5.29061 354.969 -85.6693 -347.882
lowerback -1.46155 -0.317192 0.933208
upperback -0.915682 -0.438977 -0.136699
thorax -0.126053 -0.22583 -0.668568
lowerneck -18.3174 -1.74858 -4.16508
upperneck 10.0927 -2.43277 7.40331
head 6.1951 -0.742436 2.80111
rclavicle -1.79527e-014 9.93923e-016
rhumerus 4.74092 29.5769 -86.8876
rradius 80.4818
rwrist 20.7771
rhand -29.7774 -28.6005
rfingers 7.12502
rthumb -3.10244 -58.5577
lclavicle -1.79527e-014 9.93923e-016
lhumerus 3.6856 -29.2441 88.9529
lradius 71.0602
lwrist 7.25719
lhand -13.8539 30.8107
lfingers 7.12502
lthumb 12.27 60.4307
rfemur -34.8803 -5.17359 14.9874
rtibia 25.4731
rfoot -1.22351 -15.2904
rtoes 5.24453
lfemur -3.89128 -6.73947 -23.736
ltibia 19.1891
lfoot -15.9862 -2.40218
ltoes -1.69749
201
root 30.8313 17.4529 5.27128 356.223 -85.4847 -349.171
lowerback -1.42522 -0.333378 0.958439
upperback -0.908924 -0.460379 -0.143154
thorax -0.140139 -0.23664 -0.689367
lowerneck -18.2285 -1.76041 -4.18713
upperneck 9.89852 -2.44468 7.46379
head 6.12056 -0.748785 2.82136
rclavicle 7.86442e-015 -2.5842e-015
rhumerus 5.64041 29.8512 -86.4596
rradius 80.7802
rwrist 20.9093
rhand -30.0748 -28.7991
rfingers 7.12502
rthumb -3.38972 -58.7519
lclavicle 7.86442e-015 -2.5842e-015
lhumerus 4.56857 -29.5078 88.5865
lradius 71.572
lwrist 7.68834
lhand -13.8292 31.1518
lfingers 7.12502
lthumb 12.2938 60.7704
rfemur -34.7754 -4.86808 14.9193
rtibia 24.7883
rfoot -1.05493 -15.2373
rtoes 5.21745
lfemur -3.70707 -6.76653 -23.5869
ltibia 19.7889
lfoot -16.1251 -2.5343
ltoes -2.43686
202
root 30.6896 17.4452 5.2509 357.547 -85.3055 -350.535
lowerback -1.38903 -0.344264 0.990521
upperback -0.900766 -0.474771 -0.147664
thorax -0.152643 -0.243951 -0.711918
lowerneck -18.1365 -1.77457 -4.21455
upperneck 9.70415 -2.45851 7.52555
head 6.04581 -0.756331 2.8427
rclavicle 1.22501e-014 -4.67144e-015
rhumerus 6.54614 30.1195 -86.0214
rradius 81.055
rwrist 21.0482
rhand -30.3775 -29.0049
rfingers 7.12502
rthumb -3.68202 -58.9529
lclavicle 1.22501e-014 -4.67144e-015
lhumerus 5.44963 -29.7571 88.2172
lradius 72.0732
lwrist 8.12617
lhand -13.8097 31.508
lfingers 7.12502
lthumb 12.3126 61.1255
rfemur -34.6575 -4.57596 14.8867
rtibia 24.2071
rfoot -0.89869 -15.1775
rtoes 5.23191
lfemur -3.55955 -6.78075 -23.4093
ltibia 20.4488
lfoot -16.2151 -2.68192
ltoes -3.20479
